HIERARCHY
ROOT Hips
{
  OFFSET 0.0 0.0 0.0
  CHANNELS 6 Xposition Yposition Zposition Zrotation Yrotation Xrotation
  JOINT Chest
  {
    OFFSET 0.0 33.0 0.0
    CHANNELS 3 Zrotation Yrotation Xrotation
    JOINT Chest2
    {
      OFFSET 0.0 23.0 0.0
      CHANNELS 3 Zrotation Yrotation Xrotation
      JOINT Neck
      {
        OFFSET 0.0 7.0 0.0
        CHANNELS 3 Zrotation Yrotation Xrotation
        JOINT Head
        {
          OFFSET 0.0 15.0 0.0
          CHANNELS 3 Zrotation Yrotation Xrotation
          End Site
          {
            OFFSET 0.0 0.0 0.0
          }
        }
      }
      JOINT LeftShoulder
      {
        OFFSET -14.0 0.0 0.0
        CHANNELS 3 Zrotation Yrotation Xrotation
        JOINT LeftElbow
        {
          OFFSET -25.0 0.0 0.0
          CHANNELS 3 Zrotation Yrotation Xrotation
          JOINT LeftWrist
          {
            OFFSET -23.0 0.0 0.0
            CHANNELS 3 Zrotation Yrotation Xrotation
            JOINT LeftHand
            {
              OFFSET -8.32 0.0 0.0
              CHANNELS 3 Zrotation Yrotation Xrotation
              End Site
              {
                OFFSET 0.0 0.0 0.0
              }
            }
          }
        }
      }
      JOINT RightShoulder
      {
        OFFSET 14.0 0.0 0.0
        CHANNELS 3 Zrotation Yrotation Xrotation
        JOINT RightElbow
        {
          OFFSET 25.0 0.0 0.0
          CHANNELS 3 Zrotation Yrotation Xrotation
          JOINT RightWrist
          {
            OFFSET 23.0 0.0 0.0
            CHANNELS 3 Zrotation Yrotation Xrotation
            JOINT RightHand
            {
              OFFSET 8.32 0.0 0.0
              CHANNELS 3 Zrotation Yrotation Xrotation
              End Site
              {
                OFFSET 0.0 0.0 0.0
              }
            }
          }
        }
      }
    }
  }
  JOINT HipLeft
  {
    OFFSET -9.52 0.0 0.0
    CHANNELS 3 Zrotation Yrotation Xrotation
    JOINT LeftKnee
    {
      OFFSET 0.0 -37.32 0.0
      CHANNELS 3 Zrotation Yrotation Xrotation
      JOINT LeftAnkle
      {
        OFFSET 0.0 -34.6 0.0
        CHANNELS 3 Zrotation Yrotation Xrotation
        JOINT LeftFoot
        {
          OFFSET 0.0 0.0 8.91
          CHANNELS 3 Zrotation Yrotation Xrotation
          End Site
          {
            OFFSET 0.0 0.0 0.0
          }
        }
      }
    }
  }
  JOINT RightHip
  {
    OFFSET 9.52 0.0 0.0
    CHANNELS 3 Zrotation Yrotation Xrotation
    JOINT RightKnee
    {
      OFFSET 0.0 -37.32 0.0
      CHANNELS 3 Zrotation Yrotation Xrotation
      JOINT RightAnkle
      {
        OFFSET 0.0 -34.6 0.0
        CHANNELS 3 Zrotation Yrotation Xrotation
        JOINT RightFoot
        {
          OFFSET 0.0 0.0 8.91
          CHANNELS 3 Zrotation Yrotation Xrotation
          End Site
          {
            OFFSET 0.0 0.0 0.0
          }
        }
      }
    }
  }
}
MOTION
Frames: 20
Frame Time: 0.03333300151400454
-17.36311 34.44157 219.87957 178.11866 1.58004 -168.9264 0.0535 -0.06731 1.66594 -1.51023 -0.03824 2.97915 -0.0 0.0 -0.0 -0.0 0.0 -0.0 0.02776 0.01272 -0.03034 -0.00011 -0.00015 -0.00026 8e-05 -0.00019 -0.0001 0.0 -0.0 0.0 0.06189 0.01581 0.08004 0.0 0.00037 -0.00035 -0.0 0.00064 -0.0 0.0 -0.0 0.0 -0.0006 0.00058 8e-05 0.00016 0.00049 0.00031 179.99986 2e-05 -29.63214 -0.0 -0.0 0.0 0.00062 6e-05 0.0003 5e-05 0.00051 -1e-05 180.0 -0.0 -33.82599 0.0 0.0 0.0
-17.43821 34.42741 219.94758 178.19282 1.59504 -169.12913 0.05109 -0.06252 1.64374 -1.4645 -0.03339 2.98967 0.0 -0.0 -0.0 0.0 -0.0 -0.0 0.0266 0.01362 -0.03155 -9e-05 -0.00013 -0.00023 7e-05 -0.00016 -9e-05 -0.0 0.0 -0.0 0.08179 0.02165 0.10778 -0.0 0.00033 -0.0003 0.0 0.00056 0.0 0.0 -0.0 0.0 -0.00053 0.00051 7e-05 0.00014 0.00043 0.00027 179.99988 2e-05 -29.72275 0.0 -0.0 0.0 0.00054 6e-05 0.00026 4e-05 0.00045 -0.0 -180.0 -0.0 -34.03195 0.0 0.0 0.0
-17.52662 34.4112 220.0244 178.27415 1.6092 -169.3541 0.05022 -0.05741 1.62245 -1.41566 -0.02817 3.01421 0.0 0.0 -0.0 0.0 0.0 -0.0 0.02461 0.01441 -0.03234 -8e-05 -0.00012 -0.0002 6e-05 -0.00014 -8e-05 0.0 0.0 0.0 0.10447 0.02838 0.13953 0.0 0.00028 -0.00026 -0.0 0.00048 -0.0 -0.0 -0.0 0.0 -0.00045 0.00044 6e-05 0.00012 0.00037 0.00023 179.99989 2e-05 -29.80288 -0.0 -0.0 0.0 0.00046 5e-05 0.00023 3e-05 0.00038 -1e-05 180.0 -0.0 -34.24592 0.0 0.0 0.0
-17.62951 34.39314 220.10983 178.36105 1.62308 -169.59572 0.0515 -0.0522 1.60561 -1.36559 -0.02252 3.04831 -0.0 -0.0 -0.0 -0.0 -0.0 -0.0 0.02166 0.01506 -0.03261 -7e-05 -0.0001 -0.00017 5e-05 -0.00012 -7e-05 -0.0 0.0 -0.0 0.13014 0.03608 0.17555 -0.0 0.00024 -0.00022 0.0 0.00041 0.0 -0.0 -0.0 0.0 -0.00039 0.00037 5e-05 0.0001 0.00032 0.0002 179.99991 1e-05 -29.86366 0.0 -0.0 0.0 0.0004 4e-05 0.00019 3e-05 0.00033 -0.0 -180.0 -0.0 -34.43851 0.0 0.0 0.0
-17.74747 34.37352 220.20351 178.45009 1.63581 -169.84759 0.05494 -0.04705 1.59498 -1.32135 -0.01607 3.08081 0.0 0.0 -0.0 0.0 0.0 -0.0 0.01756 0.01552 -0.03223 -6e-05 -8e-05 -0.00014 4e-05 -0.0001 -5e-05 0.0 0.0 0.0 0.15887 0.04479 0.21602 0.0 0.0002 -0.00019 -0.0 0.00034 -0.0 0.0 -0.0 0.0 -0.00032 0.00031 4e-05 8e-05 0.00026 0.00017 179.99992 1e-05 -29.8954 0.0 -0.0 0.0 0.00033 3e-05 0.00016 2e-05 0.00028 -0.0 180.0 -0.0 -34.60094 0.0 0.0 0.0
-17.88042 34.35223 220.30429 178.53841 1.6467 -170.10228 0.05928 -0.04199 1.58997 -1.28176 -0.00906 3.11353 0.0 -0.0 -0.0 0.0 -0.0 -0.0 0.01218 0.01572 -0.03107 -5e-05 -7e-05 -0.00012 3e-05 -8e-05 -5e-05 -0.0 -0.0 -0.0 0.1908 0.05457 0.26113 -0.0 0.00017 -0.00015 0.0 0.00029 0.0 -0.0 -0.0 0.0 -0.00027 0.00026 4e-05 7e-05 0.00022 0.00014 179.99994 1e-05 -29.912 0.0 -0.0 0.0 0.00028 3e-05 0.00013 2e-05 0.00023 -0.0 -180.0 -0.0 -34.72492 0.0 0.0 0.0
-18.02744 34.32971 220.41008 178.62418 1.65691 -170.35407 0.06339 -0.03698 1.58904 -1.246 -0.00164 3.14991 0.0 0.0 -0.0 0.0 0.0 -0.0 0.0053 0.01563 -0.02897 -4e-05 -6e-05 -9e-05 3e-05 -7e-05 -4e-05 0.0 0.0 0.0 0.22593 0.06543 0.31091 0.0 0.00013 -0.00012 -0.0 0.00023 -0.0 0.0 -0.0 0.0 -0.00022 0.00021 3e-05 6e-05 0.00018 0.00011 179.99995 1e-05 -29.91571 -0.0 -0.0 0.0 0.00022 2e-05 0.00011 2e-05 0.00018 -0.0 180.0 -0.0 -34.80919 0.0 0.0 0.0
-18.18729 34.30666 220.51818 178.70384 1.6609 -170.59933 0.06722 -0.03216 1.59058 -1.21863 0.00613 3.18761 -0.0 -0.0 -0.0 -0.0 -0.0 -0.0 -0.00324 0.01516 -0.02577 -3e-05 -4e-05 -8e-05 2e-05 -5e-05 -3e-05 -0.0 -0.0 -0.0 0.26428 0.07741 0.36541 -0.0 0.00011 -0.0001 0.0 0.00018 0.0 -0.0 -0.0 0.0 -0.00017 0.00017 2e-05 4e-05 0.00014 9e-05 179.99996 1e-05 -29.89776 -0.0 -0.0 0.0 0.00018 2e-05 9e-05 1e-05 0.00015 0.0 -180.0 -0.0 -34.85494 0.0 0.0 0.0
-18.35795 34.28344 220.62611 178.77565 1.6585 -170.83478 0.07052 -0.02763 1.59392 -1.2039 0.01422 3.22102 0.0 0.0 -0.0 0.0 0.0 -0.0 -0.01368 0.01425 -0.02127 -2e-05 -3e-05 -6e-05 2e-05 -4e-05 -2e-05 0.0 0.0 0.0 0.30572 0.09048 0.42448 0.0 8e-05 -8e-05 -0.0 0.00014 -0.0 -0.0 -0.0 0.0 -0.00013 0.00013 2e-05 3e-05 0.00011 7e-05 179.99997 0.0 -29.86836 -0.0 -0.0 0.0 0.00013 1e-05 7e-05 1e-05 0.00011 -0.0 180.0 -0.0 -34.86346 0.0 0.0 0.0
-18.53874 34.2601 220.73252 178.83836 1.65238 -171.0579 0.07325 -0.02346 1.59919 -1.19981 0.02235 3.25289 -0.0 -0.0 -0.0 -0.0 -0.0 -0.0 -0.02618 0.01282 -0.0153 -2e-05 -3e-05 -5e-05 1e-05 -3e-05 -2e-05 -0.0 -0.0 -0.0 0.3501 0.10463 0.48795 -0.0 6e-05 -6e-05 0.0 0.0001 0.0 -0.0 -0.0 0.0 -0.0001 9e-05 1e-05 2e-05 8e-05 5e-05 179.99998 0.0 -29.83952 0.0 -0.0 0.0 0.0001 1e-05 5e-05 1e-05 8e-05 0.0 -180.0 -0.0 -34.84964 0.0 0.0 0.0
-18.72824 34.23648 220.83557 178.89024 1.63843 -171.26699 0.07545 -0.01971 1.60581 -1.20214 0.03016 3.28373 0.0 0.0 -0.0 0.0 0.0 -0.0 -0.041 0.01078 -0.00763 -1e-05 -2e-05 -3e-05 1e-05 -2e-05 -1e-05 0.0 -0.0 0.0 0.39706 0.11977 0.55539 0.0 4e-05 -4e-05 -0.0 7e-05 -0.0 -0.0 -0.0 0.0 -7e-05 6e-05 1e-05 2e-05 5e-05 3e-05 179.99998 0.0 -29.81659 -0.0 -0.0 0.0 7e-05 1e-05 3e-05 1e-05 6e-05 -0.0 180.0 -0.0 -34.81475 0.0 0.0 0.0
-18.9216 34.21276 220.9324 178.93269 1.61212 -171.46222 0.07717 -0.01637 1.6127 -1.2095 0.03752 3.31456 -0.0 -0.0 -0.0 -0.0 -0.0 -0.0 -0.05829 0.00804 0.00196 -1e-05 -1e-05 -2e-05 1e-05 -1e-05 -1e-05 -0.0 -0.0 -0.0 0.44625 0.13582 0.62629 -0.0 2e-05 -2e-05 0.0 4e-05 0.0 0.0 -0.0 0.0 -4e-05 4e-05 1e-05 1e-05 3e-05 2e-05 179.99999 0.0 -29.80478 0.0 -0.0 0.0 4e-05 1e-05 2e-05 0.0 3e-05 0.0 -180.0 -0.0 -34.75878 0.0 0.0 0.0
-19.1162 34.18897 221.02164 178.9672 1.57747 -171.64388 0.07831 -0.01343 1.61955 -1.21957 0.04438 3.34731 0.0 0.0 -0.0 0.0 0.0 -0.0 -0.07832 0.00449 0.0137 -0.0 -1e-05 -1e-05 0.0 -1e-05 -0.0 0.0 -0.0 0.0 0.497 0.15262 0.69982 0.0 1e-05 -1e-05 -0.0 2e-05 -0.0 0.0 -0.0 0.0 -2e-05 2e-05 0.0 0.0 1e-05 1e-05 180.0 -0.0 -29.80885 -0.0 -0.0 0.0 2e-05 0.0 1e-05 0.0 2e-05 -0.0 180.0 -0.0 -34.68163 0.0 0.0 0.0
-19.31092 34.16546 221.10296 178.9941 1.53693 -171.81181 0.07911 -0.01089 1.6267 -1.23143 0.05065 3.38147 0.0 -0.0 -0.0 0.0 -0.0 -0.0 -0.10122 4e-05 0.02782 -0.0 -0.0 -0.0 0.0 -0.0 -0.0 -0.0 0.0 -0.0 0.54863 0.16998 0.77505 -0.0 -0.0 -0.0 0.0 0.0 0.0 0.0 -0.0 -0.0 -0.0 -0.0 -0.0 -0.0 0.0 -0.0 180.0 -0.0 -29.83175 0.0 -0.0 0.0 0.0 0.0 -0.0 -0.0 -0.0 0.0 -180.0 -0.0 -34.58428 0.0 0.0 0.0
-19.50386 34.14249 221.17557 179.01263 1.48732 -171.96527 0.07975 -0.00879 1.63438 -1.24575 0.05631 3.41818 0.0 0.0 -0.0 0.0 0.0 -0.0 -0.12721 -0.00544 0.04458 0.0 0.0 1e-05 -0.0 0.0 0.0 0.0 0.0 0.0 0.60009 0.18762 0.85061 0.0 -1e-05 1e-05 -0.0 -2e-05 -0.0 0.0 0.0 -0.0 2e-05 -2e-05 -0.0 -0.0 -1e-05 -1e-05 -180.0 -0.0 -29.87301 0.0 -0.0 0.0 -2e-05 -0.0 -1e-05 -0.0 -1e-05 -0.0 180.0 -0.0 -34.47271 0.0 0.0 0.0
-19.69185 34.12061 221.2387 179.02437 1.42745 -172.10463 0.0803 -0.00713 1.64213 -1.26215 0.06129 3.45663 -0.0 -0.0 -0.0 -0.0 -0.0 -0.0 -0.15641 -0.01206 0.06422 0.0 1e-05 1e-05 -0.0 1e-05 0.0 -0.0 -0.0 -0.0 0.65024 0.20522 0.92496 -0.0 -2e-05 2e-05 0.0 -3e-05 0.0 0.0 0.0 -0.0 3e-05 -3e-05 -0.0 -1e-05 -2e-05 -1e-05 -179.99999 -0.0 -29.92982 0.0 -0.0 0.0 -3e-05 -0.0 -1e-05 -0.0 -2e-05 0.0 -180.0 -0.0 -34.34937 0.0 0.0 0.0
-19.87319 34.1002 221.29208 179.03073 1.35771 -172.23086 0.08076 -0.00589 1.64963 -1.27821 0.06556 3.49843 0.0 0.0 -0.0 0.0 0.0 -0.0 -0.18896 -0.01994 0.08698 1e-05 1e-05 2e-05 -0.0 1e-05 1e-05 0.0 0.0 0.0 0.69754 0.22236 0.99605 0.0 -2e-05 2e-05 -0.0 -4e-05 -0.0 0.0 0.0 -0.0 4e-05 -4e-05 -0.0 -1e-05 -3e-05 -2e-05 -179.99999 -0.0 -29.998 -0.0 -0.0 0.0 -4e-05 -1e-05 -2e-05 -0.0 -3e-05 -0.0 180.0 -0.0 -34.2175 0.0 0.0 0.0
-20.04704 34.08127 221.336 179.03285 1.28227 -172.34488 0.08099 -0.005 1.65679 -1.2943 0.06925 3.54425 -0.0 -0.0 -0.0 -0.0 -0.0 -0.0 -0.22488 -0.02919 0.11306 1e-05 1e-05 2e-05 -1e-05 1e-05 1e-05 -0.0 0.0 -0.0 0.74026 0.23855 1.06156 -0.0 -3e-05 3e-05 0.0 -5e-05 0.0 -0.0 0.0 -0.0 4e-05 -4e-05 -1e-05 -1e-05 -4e-05 -2e-05 -179.99999 -0.0 -30.07566 0.0 -0.0 0.0 -4e-05 -0.0 -2e-05 -0.0 -4e-05 0.0 -180.0 -0.0 -34.07743 0.0 0.0 0.0
-20.21253 34.06377 221.37104 179.03238 1.20656 -172.44744 0.08102 -0.00443 1.66352 -1.31173 0.0725 3.59267 -0.0 0.0 -0.0 -0.0 0.0 -0.0 -0.26424 -0.03994 0.1427 1e-05 1e-05 2e-05 -1e-05 2e-05 1e-05 0.0 0.0 0.0 0.7762 0.25314 1.11855 0.0 -3e-05 3e-05 -0.0 -5e-05 -0.0 0.0 0.0 -0.0 5e-05 -5e-05 -1e-05 -1e-05 -4e-05 -3e-05 -179.99999 -0.0 -30.16004 -0.0 -0.0 0.0 -5e-05 -1e-05 -2e-05 -0.0 -4e-05 -0.0 180.0 -0.0 -33.93993 0.0 0.0 0.0
-20.37078 34.04755 221.39782 179.02831 1.13254 -172.53918 0.08151 -0.00416 1.67049 -1.33479 0.0755 3.64121 0.0 -0.0 -0.0 0.0 -0.0 -0.0 -0.30692 -0.05229 0.17605 1e-05 1e-05 2e-05 -1e-05 2e-05 1e-05 -0.0 -0.0 -0.0 0.80292 0.26543 1.16372 -0.0 -3e-05 3e-05 0.0 -6e-05 0.0 0.0 0.0 -0.0 5e-05 -5e-05 -1e-05 -1e-05 -4e-05 -3e-05 -179.99999 -0.0 -30.2461 0.0 -0.0 0.0 -5e-05 -0.0 -3e-05 -0.0 -5e-05 0.0 -180.0 -0.0 -33.80761 0.0 0.0 0.0
